<?xml version="1.0" standalone="no"?>
<!DOCTYPE svg PUBLIC "-//W3C//DTD SVG 20010904//EN"
 "http://www.w3.org/TR/2001/REC-SVG-20010904/DTD/svg10.dtd">
<svg version="1.0" xmlns="http://www.w3.org/2000/svg"
 width="16.000000pt" height="16.000000pt" viewBox="0 0 16.000000 16.000000"
 preserveAspectRatio="xMidYMid meet">
<metadata>
Created by potrace 1.16, written by Peter Selinger 2001-2019
</metadata>
<g transform="translate(0.000000,16.000000) scale(0.100000,-0.100000)"
fill="#000000" stroke="none">
<path d="M0 80 l0 -80 80 0 80 0 0 80 0 80 -80 0 -80 0 0 -80z m128 8 c3 -39
-14 -59 -53 -63 -36 -4 -48 16 -30 51 11 21 11 30 2 36 -17 11 34 27 58 18 14
-5 21 -18 23 -42z"/>
<path d="M75 90 c-8 -37 -1 -48 20 -30 19 16 19 34 1 49 -12 10 -15 6 -21 -19z"/>
</g>
</svg>
